<svg width="20" height="20" viewBox="0 0 20 20" fill="none" xmlns="http://www.w3.org/2000/svg">
<path d="M13.75 6.25C13.75 7.24456 13.3549 8.19839 12.6517 8.90165C11.9484 9.60491 10.9946 10 10 10C9.00544 10 8.05161 9.60491 7.34835 8.90165C6.64509 8.19839 6.25 7.24456 6.25 6.25C6.25 5.25544 6.64509 4.30161 7.34835 3.59835C8.05161 2.89509 9.00544 2.5 10 2.5C10.9946 2.5 11.9484 2.89509 12.6517 3.59835C13.3549 4.30161 13.75 5.25544 13.75 6.25ZM10 8.75C10.663 8.75 11.2989 8.48661 11.7678 8.01777C12.2366 7.54893 12.5 6.91304 12.5 6.25C12.5 5.58696 12.2366 4.95107 11.7678 4.48223C11.2989 4.01339 10.663 3.75 10 3.75C9.33696 3.75 8.70107 4.01339 8.23223 4.48223C7.76339 4.95107 7.5 5.58696 7.5 6.25C7.5 6.91304 7.76339 7.54893 8.23223 8.01777C8.70107 8.48661 9.33696 8.75 10 8.75ZM10.32 17.5C10.1769 17.094 10.0808 16.6729 10.0338 16.245H3.75C3.75125 15.9375 3.9425 15.0125 4.79 14.165C5.605 13.35 7.13875 12.5 10 12.5C10.325 12.5 10.6333 12.5104 10.925 12.5312C11.2075 12.105 11.545 11.7188 11.93 11.3838C11.3467 11.2963 10.7033 11.2517 10 11.25C3.75 11.25 2.5 15 2.5 16.25C2.5 17.5 3.75 17.5 3.75 17.5H10.32Z" fill="#FF1515"/>
<path d="M15.625 20C16.7853 20 17.8981 19.5391 18.7186 18.7186C19.5391 17.8981 20 16.7853 20 15.625C20 14.4647 19.5391 13.3519 18.7186 12.5314C17.8981 11.7109 16.7853 11.25 15.625 11.25C14.4647 11.25 13.3519 11.7109 12.5314 12.5314C11.7109 13.3519 11.25 14.4647 11.25 15.625C11.25 16.7853 11.7109 17.8981 12.5314 18.7186C13.3519 19.5391 14.4647 20 15.625 20ZM14.8175 13.9325L15.625 14.7413L16.4325 13.9325C16.5499 13.8151 16.709 13.7492 16.875 13.7492C17.041 13.7492 17.2001 13.8151 17.3175 13.9325C17.4349 14.0499 17.5008 14.209 17.5008 14.375C17.5008 14.541 17.4349 14.7001 17.3175 14.8175L16.5087 15.625L17.3175 16.4325C17.4349 16.5499 17.5008 16.709 17.5008 16.875C17.5008 17.041 17.4349 17.2001 17.3175 17.3175C17.2001 17.4349 17.041 17.5008 16.875 17.5008C16.709 17.5008 16.5499 17.4349 16.4325 17.3175L15.625 16.5087L14.8175 17.3175C14.7001 17.4349 14.541 17.5008 14.375 17.5008C14.209 17.5008 14.0499 17.4349 13.9325 17.3175C13.8151 17.2001 13.7492 17.041 13.7492 16.875C13.7492 16.709 13.8151 16.5499 13.9325 16.4325L14.7413 15.625L13.9325 14.8175C13.8151 14.7001 13.7492 14.541 13.7492 14.375C13.7492 14.209 13.8151 14.0499 13.9325 13.9325C14.0499 13.8151 14.209 13.7492 14.375 13.7492C14.541 13.7492 14.7001 13.8151 14.8175 13.9325Z" fill="#FF1515"/>
</svg>
