<svg xmlns="http://www.w3.org/2000/svg" version="1.1" xmlns:xlink="http://www.w3.org/1999/xlink" xmlns:svgjs="http://svgjs.dev/svgjs" width="2000" height="419" viewBox="0 0 2000 419"><g transform="matrix(1,0,0,1,-1.2119508591605381,-0.4912097029371978)"><svg viewBox="0 0 396 83" data-background-color="#2b3035" preserveAspectRatio="xMidYMid meet" height="419" width="2000" xmlns="http://www.w3.org/2000/svg" xmlns:xlink="http://www.w3.org/1999/xlink"><g id="tight-bounds" transform="matrix(1,0,0,1,0.239966270113797,0.09739430620922462)"><svg viewBox="0 0 395.5199999999999 82.8052369435556" height="82.8052369435556" width="395.5199999999999"><g><svg viewBox="0 0 469.0439786315063 98.19806277186973" height="82.8052369435556" width="395.5199999999999"><g transform="matrix(1,0,0,1,73.52397863150634,0)"><svg viewBox="0 0 395.52 98.19806277186973" height="98.19806277186973" width="395.52"><g id="textblocktransform"><svg viewBox="0 0 395.52 98.19806277186973" height="98.19806277186973" width="395.52" id="textblock"><g><svg viewBox="0 0 395.52 98.19806277186973" height="98.19806277186973" width="395.52"><path d="M394.594 21.062C392.735 10.869 387.435 8.035 387.435 8.035 371.165-2.464 350.86-0.201 332.619 1.308 300.414 1.369 268.339 3.611 236.208 4.814 168.767 4.998 100.749 1.98 33.643 9.421 27.339 11.705-6.54 9.87 1.121 22.366 3.129 27.565 10.456 33.334 10.232 38.104 11.236 38.94 12.631 37.024 13.226 38.226 15.309 41.468 18.711 39.939 21.501 41.855 17.614 46.972 20.403 51.233 23.062 55.697 18.377 56.859 12.371 56.309 9.675 60.162 9.396 62.955 7.89 62.424 6.235 62.302 5.026 62.221 2.59 62.526 2.999 63.403 4.394 66.4-1.594 68.133 2.162 71.068-0.422 74.248 3.948 77 3.353 80.446 3.278 81.139 3.687 81.73 4.338 81.893 7.22 82.77 3.018 84.482 3.464 86.337 33.029 99.017 65.104 90.251 95.394 96.082 103.259 92.004 97.346 97.529 100.489 96.673 102.943 95.674 104.728 99.812 107.499 97.468 107.927 96.795 107.276 95.205 108.8 95.511 109.6 95.674 110.307 95.633 110.418 94.695 110.586 93.289 109.117 94.165 108.726 93.431 112.947 89.721 111.906 98.548 115.866 98.181 115.68 97.101 114.528 95.551 116.889 95.755 119.232 94.206 119.306 92.922 121.389 96.408 121.463 97.162 121.835 97.692 122.43 98.059 128.938 94.267 135.409 99.404 142.233 97.692 146.417 95.817 150.433 98.711 154.672 97.998 156.16 97.427 157.666 96.408 159.098 98.12 176.632 98.487 195.319 96.958 211.943 98.181 256.364 95.898 303.836 99.119 350.674 96.102 361.719 94.94 373.192 93.289 383.958 91.964 383.958 91.964 392.679 88.335 392.679 72.026S394.538 57.756 394.817 44.77C395.096 31.785 396.398 31.255 394.538 21.062Z" opacity="1" fill="#ffffff" data-fill-palette-color="tertiary"></path><g transform="matrix(1,0,0,1,55.76832,26.230666666666668)"><svg width="283.98335999999995" viewBox="1.828871480559 -35.6 224.791128519441 36.21" height="45.73672943853639" data-palette-color="#2b3035"><path d="M22.75-33.08L22.75-33.08Q24.1-31.2 25.5-28.23 26.9-25.27 28.22-21.73 29.54-18.19 30.6-14.49 31.67-10.79 32.35-7.37 33.03-3.96 33.13-1.29L33.13-1.29Q33.15 0 31.96 0L31.96 0 26.05 0Q24.9 0 24.85-1.15L24.85-1.15Q24.76-3.88 23.97-7.79L23.97-7.79 10.64-7.79Q9.96-3.98 9.86-1.15L9.86-1.15Q9.81 0 8.62 0L8.62 0 2.83 0Q2.39 0 2.1-0.26 1.81-0.51 1.83-1.15L1.83-1.15Q1.95-3.86 2.62-7.31 3.3-10.77 4.37-14.48 5.44-18.19 6.76-21.74 8.08-25.29 9.5-28.25 10.91-31.2 12.26-33.08L12.26-33.08Q12.96-34.08 13.76-34.55 14.55-35.01 15.72-35.01L15.72-35.01 19.24-35.01Q20.43-35.01 21.24-34.55 22.05-34.08 22.75-33.08ZM17.38-27.29L17.24-27.29Q15.63-24.73 14.28-21.17 12.94-17.6 11.96-13.84L11.96-13.84 22.56-13.84Q21.53-17.6 20.19-21.17 18.85-24.73 17.38-27.29L17.38-27.29ZM43.53-2.27L43.53-2.27Q42.19-4.39 40.88-7.17 39.57-9.94 38.51-12.78 37.45-15.63 36.81-17.98 36.18-20.34 36.18-21.61L36.18-21.61Q36.18-22.09 36.45-22.41L36.45-22.41Q37.57-23.8 39.65-25.32L39.65-25.32Q40.01-25.56 40.31-25.56L40.31-25.56Q40.62-25.56 40.96-25.32L40.96-25.32Q42.09-24.51 42.86-23.8 43.63-23.1 44.16-22.41L44.16-22.41Q44.43-22.09 44.43-21.51L44.43-21.51 44.43-21.63Q44.43-20.04 45-17.47 45.58-14.89 46.58-12.04 47.58-9.18 48.9-6.79L48.9-6.79 49.02-6.79Q50.12-8.59 50.97-10.69 51.83-12.79 52.41-14.89 53-16.99 53.31-18.75 53.61-20.51 53.61-21.61L53.61-21.61 53.61-21.51Q53.61-22.09 53.85-22.41L53.85-22.41Q54.42-23.1 55.17-23.8 55.93-24.51 57-25.32L57-25.32Q57.35-25.56 57.64-25.56L57.64-25.56Q57.98-25.56 58.27-25.32L58.27-25.32Q59.37-24.51 60.13-23.8 60.89-23.1 61.42-22.41L61.42-22.41Q61.67-22.09 61.67-21.56L61.67-21.56Q61.64-20.24 60.98-17.86 60.32-15.48 59.21-12.63 58.1-9.79 56.74-7.04 55.37-4.3 53.95-2.27L53.95-2.27Q53.1-1.03 52.41-0.51 51.73 0 50.05 0L50.05 0 47.46 0Q45.7 0 45.03-0.49 44.36-0.98 43.53-2.27ZM36.18-21.51L36.18-21.63 36.18-21.61Q36.18-21.56 36.18-21.51L36.18-21.51ZM61.67-21.61L61.67-21.61 61.67-21.51 61.67-21.56Q61.67-21.58 61.67-21.61ZM72.65 0.61L72.65 0.61Q69.06 0.61 66.95-1.4 64.84-3.42 64.84-6.96L64.84-6.96Q64.84-8.79 65.51-10.36 66.18-11.94 67.85-13.15 69.53-14.36 72.54-15.09 75.56-15.82 80.24-15.94L80.24-15.94Q80.24-18.16 79.13-19.14 78.02-20.12 75.8-20.12L75.8-20.12Q73.8-20.12 72.53-19.43 71.26-18.75 70.94-18.51L70.94-18.51Q70.6-18.21 70.11-18.29L70.11-18.29Q69.45-18.38 68.71-18.63 67.96-18.87 67.11-19.19L67.11-19.19Q66.99-19.24 66.84-19.35 66.69-19.46 66.67-19.68L66.67-19.68Q66.67-19.8 66.69-19.98 66.72-20.17 66.82-20.65L66.82-20.65Q66.91-21.14 67.11-21.86 67.3-22.58 67.48-22.97L67.48-22.97Q67.7-23.39 68.21-23.75L68.21-23.75Q68.62-24.1 70.72-24.85 72.82-25.61 76.8-25.61L76.8-25.61Q87.76-25.61 87.76-14.94L87.76-14.94 87.76-1.12Q87.76-0.66 87.51-0.33 87.25 0 86.64 0L86.64 0 82.98 0Q82.59 0 82.28-0.11 81.98-0.22 81.71-0.54L81.71-0.54 80.2-2.49 80.02-2.49Q78.9-0.85 77.01-0.12 75.12 0.61 72.65 0.61ZM75.34-5.05L75.34-5.05Q77.58-5.05 78.73-6.2 79.88-7.35 80.2-8.57L80.2-8.57 80.2-11.28Q76.8-11.28 75.1-10.75 73.41-10.23 72.85-9.39 72.29-8.54 72.29-7.57L72.29-7.57Q72.29-6.15 73.16-5.6 74.04-5.05 75.34-5.05ZM123.33-14.43L123.33-2.39Q122.75-1.98 121.24-1.26 119.74-0.54 117.11 0.02 114.47 0.59 110.49 0.59L110.49 0.59Q105.14 0.59 101.27-1.18 97.4-2.95 95.33-6.92 93.25-10.89 93.25-17.43L93.25-17.43Q93.25-26.15 97.72-30.87 102.19-35.6 110.17-35.6L110.17-35.6Q113.98-35.6 116.25-34.86 118.52-34.13 119.69-33.15 120.87-32.18 121.33-31.45L121.33-31.45Q121.5-31.18 121.57-30.97 121.65-30.76 121.67-30.32L121.67-30.32Q121.75-29.74 121.71-28.61 121.67-27.49 121.53-26.64L121.53-26.64Q121.43-26.1 121.21-25.93L121.21-25.93Q121.11-25.83 120.87-25.76 120.62-25.68 120.13-25.68L120.13-25.68Q119.35-25.68 118.32-25.74 117.28-25.81 116.79-25.88L116.79-25.88Q116.2-25.98 115.95-26.16 115.69-26.34 115.4-26.73L115.4-26.73Q115.1-27.12 114.59-27.65 114.08-28.17 113.04-28.59 112-29 110.17-29L110.17-29Q106.14-29 103.85-26.09 101.56-23.17 101.56-17.7L101.56-17.7Q101.56-11.96 103.94-8.98 106.32-6.01 110.78-6.01L110.78-6.01Q113.03-6.01 114.09-6.34 115.15-6.67 115.45-6.84L115.45-6.84 115.45-14.43Q115.45-15.14 115.69-15.5L115.69-15.5Q116.79-17.11 118.77-18.9L118.77-18.9Q119.13-19.19 119.4-19.19L119.4-19.19Q119.69-19.19 120.01-18.9L120.01-18.9Q121.09-17.97 121.82-17.13 122.55-16.28 123.09-15.5L123.09-15.5Q123.33-15.11 123.33-14.43L123.33-14.43ZM135.78 0.61L135.78 0.61Q132.19 0.61 130.08-1.4 127.97-3.42 127.97-6.96L127.97-6.96Q127.97-8.79 128.64-10.36 129.31-11.94 130.98-13.15 132.66-14.36 135.67-15.09 138.69-15.82 143.37-15.94L143.37-15.94Q143.37-18.16 142.26-19.14 141.15-20.12 138.93-20.12L138.93-20.12Q136.93-20.12 135.66-19.43 134.39-18.75 134.07-18.51L134.07-18.51Q133.73-18.21 133.24-18.29L133.24-18.29Q132.58-18.38 131.84-18.63 131.09-18.87 130.24-19.19L130.24-19.19Q130.12-19.24 129.97-19.35 129.82-19.46 129.8-19.68L129.8-19.68Q129.8-19.8 129.82-19.98 129.85-20.17 129.95-20.65L129.95-20.65Q130.04-21.14 130.24-21.86 130.43-22.58 130.61-22.97L130.61-22.97Q130.82-23.39 131.34-23.75L131.34-23.75Q131.75-24.1 133.85-24.85 135.95-25.61 139.93-25.61L139.93-25.61Q150.89-25.61 150.89-14.94L150.89-14.94 150.89-1.12Q150.89-0.66 150.64-0.33 150.38 0 149.77 0L149.77 0 146.11 0Q145.72 0 145.41-0.11 145.11-0.22 144.84-0.54L144.84-0.54 143.32-2.49 143.15-2.49Q142.03-0.85 140.14-0.12 138.25 0.61 135.78 0.61ZM138.47-5.05L138.47-5.05Q140.71-5.05 141.86-6.2 143.01-7.35 143.32-8.57L143.32-8.57 143.32-11.28Q139.93-11.28 138.23-10.75 136.54-10.23 135.98-9.39 135.41-8.54 135.41-7.57L135.41-7.57Q135.41-6.15 136.29-5.6 137.17-5.05 138.47-5.05ZM179.85-22.44L179.85-22.44Q180.75-23.54 182.64-24.57 184.53-25.61 187.98-25.61L187.98-25.61Q192.86-25.61 195.03-23.1 197.2-20.58 197.2-15.55L197.2-15.55 197.2-1.29Q197.2-0.56 196.9-0.28 196.59 0 195.86 0L195.86 0 190.83 0Q190.1 0 189.79-0.28 189.49-0.56 189.49-1.29L189.49-1.29 189.49-14.28Q189.49-17.02 188.49-18.2 187.49-19.38 185.49-19.38L185.49-19.38Q183.7-19.38 182.67-18.59 181.63-17.8 181.19-16.46L181.19-16.46 181.19-1.29Q181.19-0.56 180.88-0.28 180.58 0 179.85 0L179.85 0 174.82 0Q174.08 0 173.78-0.28 173.47-0.56 173.47-1.29L173.47-1.29 173.47-14.28Q173.47-16.94 172.38-18.16 171.28-19.38 169.49-19.38L169.49-19.38Q167.81-19.38 166.78-18.55 165.76-17.72 165.2-16.46L165.2-16.46 165.2-1.29Q165.2-0.56 164.89-0.28 164.59 0 163.85 0L163.85 0 158.83 0Q158.09 0 157.79-0.28 157.48-0.56 157.48-1.29L157.48-1.29 157.48-21.75Q157.48-22.34 157.73-22.66L157.73-22.66Q158.24-23.34 158.96-24.05 159.68-24.76 160.73-25.56L160.73-25.56Q161.05-25.81 161.34-25.81L161.34-25.81Q161.61-25.81 161.95-25.56L161.95-25.56Q162.98-24.76 163.71-24.02 164.44-23.29 165-22.51L165-22.51 165.12-22.51Q165.95-23.56 167.71-24.58 169.47-25.61 172.74-25.61L172.74-25.61Q175.87-25.61 177.38-24.67 178.89-23.73 179.85-22.44ZM216.05 0.61L216.05 0.61Q211.92 0.61 208.87-0.72 205.82-2.05 204.14-4.86 202.45-7.67 202.45-12.11L202.45-12.11Q202.45-18.77 205.87-22.19 209.29-25.61 214.95-25.61L214.95-25.61Q218.64-25.61 221.19-24.29 223.74-22.97 225.07-20.65 226.4-18.33 226.4-15.36L226.4-15.36Q226.4-12.45 224.91-11.3 223.42-10.16 220.57-10.16L220.57-10.16 210.09-10.16Q210.29-7.64 211.94-6.32 213.58-5 216.42-5L216.42-5Q218.66-5 220.02-5.68 221.37-6.35 221.91-6.74L221.91-6.74Q222.37-7.08 222.96-7.06L222.96-7.06Q223.42-7.06 224.29-6.87 225.16-6.69 226.01-6.2L226.01-6.2Q226.62-5.88 226.62-5.32L226.62-5.32Q226.62-5 226.5-4.42L226.5-4.42Q226.43-4.08 226.25-3.43 226.08-2.78 225.82-2.22L225.82-2.22Q225.67-1.95 225.35-1.71L225.35-1.71Q224.86-1.37 223.78-0.81 222.69-0.24 220.81 0.18 218.93 0.61 216.05 0.61ZM210.04-15.16L210.04-15.16 218-15.16Q219.25-15.16 219.25-16.31L219.25-16.31Q219.25-18.04 218.16-19.23 217.07-20.41 214.9-20.41L214.9-20.41Q212.53-20.41 211.42-18.9 210.31-17.38 210.04-15.16Z" opacity="1" transform="matrix(1,0,0,1,0,0)" fill="#2b3035" class="wordmark-text-0" data-fill-palette-color="quaternary" id="text-0"></path></svg></g></svg></g></svg></g></svg></g><g transform="matrix(1,0,0,1,0,6.124285848205602)"><svg viewBox="0 0 62.726634492574426 85.94949107545852" height="85.94949107545852" width="62.726634492574426"><g><svg xmlns="http://www.w3.org/2000/svg" xmlns:xlink="http://www.w3.org/1999/xlink" version="1.1" x="0" y="0" viewBox="5.11699999999999 4.861000000000002 65.94400000000002 90.35799999999998" enable-background="new 0 0 77 100" xml:space="preserve" height="85.94949107545852" width="62.726634492574426" class="icon-icon-0" data-fill-palette-color="accent" id="icon-0"><path fill="#ffffff" d="M28.301 46.507c0 0.522-0.42 0.939-0.935 0.939-0.293 0-0.551-0.134-0.724-0.346-0.346-0.275-1.362-1.066-1.722-1.15-0.261-0.063-1.256 1.002-1.902 1.545-0.169 0.233-0.441 0.381-0.752 0.381-0.519 0-0.939-0.417-0.939-0.932 0-0.226 0.082-0.431 0.216-0.593l-0.014-0.021c0 0 2.283-2.244 3.007-2.463C25.26 43.642 26 44.094 26 44.094s1.514 1.122 1.987 1.722C28.178 45.985 28.301 46.232 28.301 46.507zM32.211 53.601c-0.473-0.593-1.987-1.716-1.987-1.716s-0.741-0.451-1.464-0.232c-0.724 0.226-3.006 2.47-3.006 2.47l0.014 0.021c-0.134 0.164-0.215 0.361-0.215 0.587 0 0.522 0.42 0.938 0.939 0.938 0.31 0 0.582-0.148 0.751-0.382 0.646-0.543 1.641-1.608 1.902-1.552 0.359 0.085 1.376 0.882 1.722 1.158 0.173 0.211 0.431 0.345 0.723 0.345 0.515 0 0.935-0.417 0.935-0.938C32.525 54.023 32.401 53.776 32.211 53.601zM44.883 53c-0.473-0.593-1.986-1.715-1.986-1.715s-0.741-0.452-1.465-0.233c-0.724 0.22-3.006 2.471-3.006 2.471l0.015 0.014c-0.131 0.163-0.216 0.367-0.216 0.593 0 0.516 0.423 0.938 0.939 0.938 0.31 0 0.582-0.154 0.755-0.38 0.643-0.551 1.638-1.617 1.898-1.553 0.363 0.084 1.376 0.875 1.722 1.157 0.173 0.204 0.431 0.346 0.724 0.346 0.519 0 0.938-0.423 0.938-0.938C45.2 53.416 45.077 53.169 44.883 53zM57.393 52.943c-0.473-0.593-1.986-1.715-1.986-1.715s-0.741-0.452-1.465-0.232c-0.724 0.226-3.006 2.47-3.006 2.47l0.014 0.015c-0.134 0.161-0.216 0.367-0.216 0.593 0 0.515 0.421 0.938 0.938 0.938 0.312 0 0.582-0.155 0.753-0.382 0.645-0.542 1.64-1.615 1.901-1.553 0.36 0.085 1.376 0.884 1.722 1.158 0.173 0.212 0.431 0.345 0.724 0.345 0.516 0 0.936-0.423 0.936-0.938C57.707 53.367 57.583 53.12 57.393 52.943zM53.439 44.99c-0.469-0.593-1.986-1.715-1.986-1.715s-0.741-0.452-1.463-0.233c-0.721 0.219-3.008 2.47-3.008 2.47l0.014 0.014c-0.13 0.162-0.211 0.367-0.211 0.593 0 0.515 0.419 0.938 0.938 0.938 0.307 0 0.578-0.155 0.751-0.381 0.643-0.55 1.639-1.616 1.902-1.553 0.359 0.084 1.374 0.875 1.723 1.157 0.173 0.205 0.427 0.346 0.721 0.346 0.518 0 0.938-0.424 0.938-0.939C53.759 45.406 53.635 45.159 53.439 44.99zM40.331 43.508c-0.473-0.593-1.987-1.715-1.987-1.715s-0.741-0.451-1.464-0.233c-0.724 0.226-3.006 2.47-3.006 2.47l0.014 0.015c-0.134 0.162-0.215 0.367-0.215 0.592 0 0.516 0.419 0.939 0.938 0.939 0.31 0 0.582-0.155 0.751-0.381 0.646-0.543 1.641-1.609 1.902-1.552 0.36 0.084 1.376 0.882 1.722 1.157 0.173 0.211 0.431 0.346 0.723 0.346 0.517 0 0.939-0.424 0.939-0.939C40.648 43.931 40.524 43.684 40.331 43.508zM22.5 54.095c-0.473-0.594-1.987-1.716-1.987-1.716s-0.741-0.451-1.465-0.232c-0.724 0.226-3.006 2.47-3.006 2.47l0.014 0.021c-0.131 0.162-0.215 0.36-0.215 0.586 0 0.522 0.423 0.938 0.938 0.938 0.31 0 0.582-0.148 0.755-0.382 0.642-0.543 1.638-1.608 1.899-1.553 0.36 0.086 1.375 0.884 1.721 1.158 0.173 0.212 0.431 0.346 0.724 0.346 0.519 0 0.939-0.416 0.939-0.938C22.817 54.518 22.694 54.271 22.5 54.095zM26.597 22.582c-0.924 0-1.676 0.748-1.676 1.672 0 0.925 0.752 1.673 1.676 1.673 0.921 0 1.672-0.748 1.672-1.673C28.269 23.33 27.518 22.582 26.597 22.582zM26.237 24.501c-0.392 0-0.713-0.317-0.713-0.712 0-0.396 0.321-0.713 0.713-0.713 0.395 0 0.713 0.318 0.713 0.713C26.95 24.184 26.632 24.501 26.237 24.501zM49.746 22.582c-0.925 0-1.673 0.748-1.673 1.672 0 0.925 0.748 1.673 1.673 1.673 0.924 0 1.672-0.748 1.672-1.673C51.418 23.33 50.67 22.582 49.746 22.582zM49.28 24.501c-0.396 0-0.713-0.317-0.713-0.712 0-0.396 0.317-0.713 0.713-0.713 0.391 0 0.713 0.318 0.713 0.713C49.993 24.184 49.671 24.501 49.28 24.501zM62.17 34.947c1.397 0.197 2.792 0.423 4.183 0.656 0.79 0.134 1.573 0.29 2.356 0.459 0.787 0.148 1.563 0.339 2.352 0.508-1.487-0.621-3.04-1.073-4.603-1.454-1.535-0.388-3.092-0.656-4.654-0.889-0.714-1.383-1.412-2.689-2.071-3.889 0.494-0.028 0.991-0.063 1.485-0.099L64.954 30c1.243-0.071 2.488-0.142 3.749-0.177-2.488-0.438-5.026-0.388-7.527-0.24-0.593 0.042-1.186 0.098-1.778 0.155-0.509-0.917-0.992-1.771-1.437-2.541 1.604-0.818 3.221-1.581 4.922-2.258-1.845 0.176-3.605 0.868-5.25 1.687-2.368-4.107-4.2-7.17-5.845-9.365 1.833-8.681-1.545-12.4-1.545-12.4-2.665 3.084-3.857 5.794-4.361 7.855-3.465-0.656-11.744-0.67-15.672 0.028-0.519-2.054-1.718-4.722-4.337-7.749 0 0-3.419 3.769-1.51 12.562-1.451 2.075-3.275 4.969-5.837 8.935-0.011 0.021-0.021 0.036-0.032 0.056-1.63-0.811-3.374-1.481-5.202-1.658 1.673 0.656 3.265 1.404 4.845 2.216-0.526 0.818-1.059 1.672-1.595 2.555-0.512-0.049-1.027-0.091-1.542-0.127-2.501-0.155-5.039-0.205-7.523 0.233 1.256 0.035 2.501 0.113 3.747 0.177l3.734 0.247c0.406 0.021 0.815 0.05 1.221 0.078-0.762 1.277-1.528 2.604-2.279 3.98-1.404 0.212-2.802 0.466-4.182 0.812-0.78 0.19-1.56 0.402-2.329 0.635-0.766 0.254-1.531 0.508-2.272 0.826 0.788-0.177 1.563-0.367 2.354-0.515 0.78-0.17 1.566-0.318 2.354-0.452 1.225-0.211 2.456-0.409 3.688-0.586C9.394 42.654 5.84 51.63 5.84 60.009c0.053 2.308 0.237 4.171 0.501 5.702 0.011 1.411 0.166 8.215 2.174 9.535l0.631 0.409-0.084-0.748c-0.036-0.297-0.057-0.636-0.067-0.981 0.311 1.059 0.741 1.92 1.33 2.308l0.604 0.396c0.878 4.679 3.332 11.828 8.935 15.829 0.103 0.079 0.222 0.142 0.332 0.214-0.677 0.296-1.418 0.691-2.015 1.198l-0.544 0.46 0.703 0.12c0.914 0.147 1.517 0.197 1.973 0.204l-0.427 0.529 0.712-0.021c0.494-0.014 0.833-0.056 1.158-0.099 0.797-0.099 1.553-0.197 4.711 0.155 2.209-0.057 3.384-0.239 4.019-0.452 2.407 0.049 4.789-0.035 6.803-0.035 0.071 0 0.145 0 0.216 0 0.127-0.204 0.254-0.389 0.367-0.515 0.035-0.134 0.099-0.17 0.18-0.142 0.081-0.035 0.148 0.008 0.183 0.142 0.113 0.126 0.24 0.311 0.367 0.521 2.149 0.015 4.379 0.058 6.585-0.021 0.698 0.163 1.813 0.29 3.603 0.34 3.158-0.354 3.914-0.261 4.711-0.155 0.328 0.042 0.663 0.084 1.158 0.099l0.712 0.021-0.424-0.529c0.453-0.008 1.056-0.057 1.971-0.212l0.701-0.113-0.543-0.458c-0.501-0.432-1.108-0.777-1.693-1.06 0.366-0.184 0.723-0.373 1.069-0.592 6.534-4.045 8.137-11.187 9.04-15.831l-0.024 0.212 0.632-0.416c0.589-0.39 1.02-1.249 1.333-2.308-0.015 0.353-0.034 0.685-0.066 0.987l-0.089 0.748 0.632-0.416c1.986-1.306 2.16-7.99 2.174-9.492 0.176-1.392 0.237-3.211 0.124-5.668C69.832 51.737 65.9 42.308 62.17 34.947zM8.286 73.876c-0.561-1.101-0.882-3.013-1.059-4.812 0.35 0.903 0.73 1.567 1.108 2.075C8.293 71.865 8.254 72.91 8.286 73.876zM10.096 74.864c-0.342-0.67-0.593-1.644-0.776-2.703 0.303 0.24 0.579 0.403 0.797 0.529C10.089 73.348 10.071 74.123 10.096 74.864zM49.583 20.825c2.012 0 3.649 1.637 3.649 3.649 0 2.011-1.638 3.649-3.649 3.649-2.011 0-3.648-1.638-3.648-3.649C45.935 22.462 47.572 20.825 49.583 20.825zM39.686 21.975c0.274-0.021 0.543-0.049 0.832-0.042 0.332 0.014 0.583 0.148 0.833 0.268 0.494 0.254 0.96 0.544 1.401 0.875-0.509-0.211-1.002-0.444-1.504-0.642-0.254-0.084-0.512-0.205-0.733-0.19-0.255 0.007-0.529 0.036-0.798 0.057-1.087 0.099-2.174 0.211-3.274 0.226C37.511 22.257 38.591 22.088 39.686 21.975zM38.309 26.697c-0.166 0.275-0.935 0.331-1.482-0.219-0.547-0.551-2.414-1.313-2.414-1.313s-1.207-0.769-0.057-0.988c0 0 5.431-0.438 7.022 0 1.592 0.438-0.163 0.988-0.163 0.988S38.471 26.421 38.309 26.697zM38.527 30.43c-0.349 0.142-0.652 0.283-0.988 0.41-0.333 0.127-0.664 0.247-1.041 0.303 0.257-0.282 0.582-0.466 0.924-0.606 0.173-0.063 0.35-0.12 0.537-0.141C38.147 30.373 38.344 30.359 38.527 30.43zM35.687 22.046c0.36-0.064 0.72-0.12 1.083-0.142 0.364-0.021 0.734-0.042 1.098 0.021-0.713 0.148-1.408 0.317-2.121 0.444-0.709 0.12-1.422 0.24-2.156 0.269C34.268 22.356 34.974 22.18 35.687 22.046zM26.431 20.825c2.011 0 3.649 1.637 3.649 3.649 0 2.011-1.638 3.649-3.649 3.649-2.012 0-3.649-1.638-3.649-3.649C22.782 22.462 24.419 20.825 26.431 20.825zM21.095 93.956c-0.427 0.041-0.889 0.077-1.859-0.043 0.55-0.346 1.157-0.622 1.683-0.833 0.287 0.148 0.586 0.283 0.9 0.402C21.568 93.637 21.321 93.793 21.095 93.956zM26.495 94.562c-2.901-0.325-3.818-0.275-4.591-0.184v-0.177c0.232-0.147 0.476-0.289 0.723-0.431 1.245 0.389 2.639 0.636 4.097 0.784C26.646 94.556 26.575 94.562 26.495 94.562zM53.353 94.217c-0.633-0.078-1.362-0.127-3.184 0.035 0.883-0.148 1.739-0.339 2.569-0.586 0.211 0.127 0.416 0.247 0.614 0.374V94.217zM56.02 93.75c-0.97 0.12-1.433 0.086-1.859 0.043-0.184-0.134-0.385-0.261-0.586-0.389 0.343-0.12 0.678-0.246 1.007-0.387C55.046 93.207 55.554 93.455 56.02 93.75zM37.917 91.923c-14.676 0-26.572-12.344-26.572-27.574 0-15.23 11.896-27.574 26.572-27.574s26.575 12.344 26.575 27.574C64.492 79.579 52.593 91.923 37.917 91.923zM66.328 74.66c0.021-0.685 0.01-1.404-0.015-2.026 0.251-0.662 0.571-1.128 0.925-1.53C67.048 72.486 66.758 73.812 66.328 74.66zM68.138 73.672c0.043-1.277-0.038-2.689-0.085-3.332 0.004-0.027 0.004-0.056 0.008-0.077 0.402-0.409 0.801-0.861 1.146-1.531C69.037 70.567 68.713 72.543 68.138 73.672z" data-fill-palette-color="accent"></path></svg></g></svg></g></svg></g><defs></defs></svg><rect width="395.5199999999999" height="82.8052369435556" fill="none" stroke="none" visibility="hidden"></rect></g></svg></g></svg>